<?xml version="1.0" encoding="UTF-8"?>
<svg version="1.1" xmlns="http://www.w3.org/2000/svg" width="512" height="512">
<path d="M0 0 C6.66389947 4.70098247 10.16985227 10.06167308 13.6875 17.3125 C14.44051392 18.81006836 14.44051392 18.81006836 15.20874023 20.33789062 C16.2748066 22.4631062 17.33299044 24.59229176 18.38378906 26.72509766 C19.99373734 29.98731006 21.62955396 33.23524118 23.2734375 36.48046875 C27.93279545 45.70016723 32.53529539 54.94485378 36.95532227 64.28198242 C37.82022942 66.09774922 38.69710677 67.90786129 39.58569336 69.7121582 C42.13568362 74.91643005 44.48982556 80.14544083 46.63964844 85.52511597 C47.91419457 88.66384202 49.26927648 91.7645943 50.63513184 94.86450195 C51.28498683 96.38956553 51.90076738 97.92969264 52.47814941 99.48364258 C54.42843941 104.70049103 56.55683686 109.45883582 61 113 C67.43538171 115.88959956 74.80042714 115.99538238 81.73358154 116.58291626 C89.42203534 117.28261665 97.05098569 118.53856894 104.68556595 119.66660118 C109.5862411 120.38640349 114.4905034 121.0808198 119.39453125 121.77734375 C120.38532999 121.91867328 121.37612873 122.0600028 122.39695168 122.20561504 C127.48688673 122.93148576 132.57751477 123.65194181 137.66943359 124.36376953 C142.67310006 125.06362445 147.67476995 125.77644802 152.67536926 126.49787903 C154.55960809 126.767312 156.44452455 127.03205322 158.3301239 127.29179382 C160.95703074 127.65423802 163.58106427 128.03326229 166.20507812 128.41601562 C166.96566025 128.51690994 167.72624237 128.61780426 168.50987244 128.72175598 C177.71474168 130.10675957 185.84130122 133.91548376 192 141 C197.05058613 149.02078194 199.15433631 156.94700514 197.609375 166.38671875 C195.45556237 175.18145364 190.08399125 181.40244111 183.31713867 187.19262695 C179.19982829 190.77641209 175.33319774 194.55409634 171.5 198.4375 C170.4800293 199.46315063 170.4800293 199.46315063 169.43945312 200.50952148 C167.29049074 202.67057055 165.14482721 204.83484726 163 207 C160.16966163 209.85716017 157.33587327 212.71083454 154.5 215.5625 C153.86642578 216.20437256 153.23285156 216.84624512 152.58007812 217.50756836 C146.5258958 223.59430859 140.14577741 229.1564059 133.36575317 234.41799927 C130.58413805 236.63019861 127.91667372 238.96481412 125.24951172 241.31298828 C123.84450723 242.51132698 122.40224518 243.66742709 120.92529297 244.77587891 C115.40753437 248.95345146 110.97289103 253.20347934 109 260 C108.64626316 270.78733887 111.50483199 281.44693818 113.8815918 291.89892578 C115.56753858 299.40990937 116.78672151 307.00000012 118.04536438 314.59182739 C118.74363995 318.77609596 119.47167541 322.95516346 120.19726562 327.13476562 C120.48543456 328.803141 120.77360187 330.47151665 121.06176758 332.13989258 C121.65275783 335.55426327 122.2497255 338.96752285 122.85083008 342.38012695 C123.59542604 346.6094659 124.3270566 350.84087101 125.05014229 355.07393837 C125.32253212 356.65462824 125.59953439 358.23453155 125.88157463 359.81352806 C128.13839907 372.46694436 129.16301026 382.71222259 122 394 C119.5 396.875 119.5 396.875 117 399 C116.278125 399.70125 115.55625 400.4025 114.8125 401.125 C108.37488025 405.4167465 100.6410507 407.00854861 93 406 C83.86552309 403.43702727 75.54142694 398.88791219 67.1875 394.5 C65.79722222 393.7760942 64.40675731 393.05254767 63.01611328 392.3293457 C54.57829891 387.93013862 46.20925182 383.41617473 37.88330078 378.80859375 C26.93504768 372.7938252 15.78062785 367.16802889 4.65185547 361.49682617 C3.86950027 361.09751389 3.08714508 360.6982016 2.28108215 360.28678894 C0.81240118 359.53748481 -0.65703679 358.78966168 -2.12739563 358.0436554 C-5.42677754 356.36055533 -8.64446763 354.62416474 -11.81713867 352.71166992 C-14.84184736 350.66652333 -14.84184736 350.66652333 -17.9296875 351.48828125 C-18.94289062 351.98714844 -19.95609375 352.48601562 -21 353 C-21.88993652 353.4338501 -21.88993652 353.4338501 -22.79785156 353.87646484 C-24.92935071 354.94115238 -27.02667231 356.05886431 -29.125 357.1875 C-29.94210449 357.6218335 -30.75920898 358.05616699 -31.60107422 358.50366211 C-36.51348699 361.11923894 -41.41243353 363.75982595 -46.3125 366.3984375 C-48.58313051 367.6201687 -50.85397025 368.8415111 -53.125 370.0625 C-53.70474579 370.37434235 -54.28449158 370.68618469 -54.88180542 371.00747681 C-66.3293697 377.15959321 -77.86870001 383.12702359 -89.43554688 389.05126953 C-97.34710825 393.10501953 -105.2470482 397.17407449 -113.02026367 401.48974609 C-121.65740028 406.18149404 -129.69958396 407.3297583 -139.125 404.8125 C-148.7230962 401.58837171 -153.5506164 395.72812632 -158.10546875 386.84375 C-161.52974197 375.95785086 -158.888415 365.36640561 -156.95703125 354.43359375 C-156.62769611 352.51257761 -156.2995687 350.59135406 -155.97257996 348.66993713 C-155.10933181 343.61577605 -154.2306646 338.56441937 -153.34838867 333.5135498 C-152.64193064 329.45841636 -151.94397241 325.4018493 -151.24750328 321.34498978 C-150.90524047 319.35201497 -150.56208759 317.35919281 -150.21802711 315.36652756 C-149.37876509 310.50155983 -148.55170568 305.6351358 -147.75057983 300.76373291 C-146.4363725 292.83801278 -145.10229455 285.02092864 -143.01220703 277.25878906 C-140.19431759 267.25807913 -140.19431759 267.25807913 -142.23574829 257.41049194 C-146.59645459 250.88977401 -152.34193129 245.95089966 -158.25 240.875 C-159.94138425 239.32083392 -161.62635479 237.75965758 -163.3046875 236.19140625 C-168.45524629 231.41965254 -173.73181311 226.80523673 -179.05915833 222.23252869 C-183.7755441 218.15792133 -188.22741047 213.89159254 -192.60546875 209.45703125 C-193.63611198 208.42070808 -193.63611198 208.42070808 -194.68757629 207.3634491 C-196.85669396 205.18224197 -199.02250496 202.99779866 -201.1875 200.8125 C-204.05306682 197.92025607 -206.92198825 195.03140025 -209.79296875 192.14453125 C-210.76655586 191.15849663 -210.76655586 191.15849663 -211.7598114 190.15254211 C-215.02813458 186.86664918 -218.32256649 183.83572754 -222 181 C-227.52585653 175.12329544 -230.00946346 167.53824746 -230.4375 159.5625 C-230.03594514 150.09249777 -225.87707809 142.33769942 -219 136 C-212.04578693 130.6069368 -204.77047522 129.51442978 -196.28466797 128.32006836 C-195.21732422 128.16532547 -194.14998047 128.01058258 -193.05029297 127.85115051 C-189.53164206 127.34225746 -186.01193328 126.841103 -182.4921875 126.33984375 C-180.04404013 125.98691535 -177.59597188 125.63343773 -175.14797974 125.2794342 C-168.70910999 124.34953975 -162.26935667 123.42592103 -155.8293457 122.50396729 C-145.51395408 121.02626849 -135.19984662 119.5396479 -124.88589859 118.05191231 C-121.28107912 117.5329428 -117.6758368 117.01699423 -114.07052612 116.50144958 C-111.8658542 116.18455441 -109.66119258 115.8675875 -107.45654297 115.55053711 C-106.4517691 115.40766266 -105.44699524 115.26478821 -104.41177368 115.11758423 C-103.48938904 114.98447342 -102.56700439 114.85136261 -101.6166687 114.71421814 C-100.81697096 114.59974807 -100.01727322 114.485278 -99.19334221 114.36733913 C-97.06836058 114.01144897 -95.04914917 113.67047761 -93 113 C-91.37839701 110.7839889 -91.37839701 110.7839889 -90.05834961 107.92724609 C-89.51355453 106.84035492 -88.96875946 105.75346375 -88.40745544 104.63363647 C-87.82209526 103.43039387 -87.23706756 102.22698948 -86.65234375 101.0234375 C-86.03540166 99.77900807 -85.41726116 98.53517213 -84.79798889 97.29190063 C-83.16049926 93.99581637 -81.54027063 90.69152367 -79.92321777 87.38537598 C-78.3196289 84.11484902 -76.69890376 80.85284731 -75.08007812 77.58984375 C-67.58435432 62.45818021 -60.24992584 47.25093074 -53 32 C-51.10227671 28.01144284 -49.18911197 24.03113269 -47.25 20.0625 C-46.83363281 19.18400391 -46.41726562 18.30550781 -45.98828125 17.40039062 C-42.27449238 9.84299959 -37.7612165 2.61351644 -29.8125 -0.9375 C-28.99394531 -1.31777344 -28.17539063 -1.69804688 -27.33203125 -2.08984375 C-18.18484215 -5.65985223 -8.58807151 -4.71989054 0 0 Z " fill="#FFC423" transform="translate(272,55)"/>
</svg>
